<svg width="30" height="30" viewBox="0 0 30 30" fill="none" xmlns="http://www.w3.org/2000/svg">
<circle cx="15" cy="15" r="15" fill="#C4C4C4"/>
<path d="M19.1071 10.35C18.4968 9.69969 18.1605 8.86453 18.1607 8H15.4018V18.3333C15.3805 18.8925 15.1276 19.4222 14.6962 19.8108C14.2649 20.1994 13.6888 20.4166 13.0893 20.4167C11.8214 20.4167 10.7679 19.45 10.7679 18.25C10.7679 16.8167 12.25 15.7417 13.7768 16.1833V13.55C10.6964 13.1667 8 15.4 8 18.25C8 21.025 10.4643 23 13.0804 23C15.8839 23 18.1607 20.875 18.1607 18.25V13.0083C19.2795 13.7582 20.6226 14.1605 22 14.1583V11.5833C22 11.5833 20.3214 11.6583 19.1071 10.35Z" fill="black"/>
</svg>
