<svg width="183" height="48" viewBox="0 0 183 48" fill="none" xmlns="http://www.w3.org/2000/svg">
<path d="M15.7144 33.4287C24.3931 33.4287 31.4287 26.3932 31.4287 17.7144C31.4287 16.7308 31.3383 15.7683 31.1654 14.8348C30.2319 14.6619 29.2694 14.5715 28.2858 14.5715C19.6071 14.5715 12.5715 21.6071 12.5715 30.2858C12.5715 31.2694 12.6619 32.2319 12.8348 33.1654C13.7683 33.3383 14.7308 33.4287 15.7144 33.4287Z" fill="#667085"/>
<path fill-rule="evenodd" clip-rule="evenodd" d="M12.8347 33.1653C5.53118 31.8127 0 25.4095 0 17.7143C0 9.03553 7.03553 2 15.7143 2C23.4095 2 29.8128 7.53118 31.1653 14.8347C30.2318 14.6618 29.2693 14.5714 28.2857 14.5714C19.607 14.5714 12.5714 21.607 12.5714 30.2857C12.5714 31.2693 12.6618 32.2318 12.8347 33.1653Z" fill="#98A2B3"/>
<path fill-rule="evenodd" clip-rule="evenodd" d="M15.7146 33.4284C24.3933 33.4284 31.4289 26.3928 31.4289 17.7141C31.4289 16.7305 31.3385 15.768 31.1656 14.8345C38.4691 16.187 44.0003 22.5903 44.0003 30.2855C44.0003 38.9643 36.9648 45.9998 28.286 45.9998C20.5908 45.9998 14.1875 40.4686 12.835 33.1651C13.7685 33.338 14.731 33.4284 15.7146 33.4284Z" fill="#D0D5DD"/>
<path d="M74.2284 28.9042C73.6684 30.7148 72.6884 32.0682 71.2884 32.9642C69.8884 33.8415 68.255 34.2802 66.3884 34.2802C64.559 34.2802 62.9724 33.8975 61.6284 33.1322C60.303 32.3668 59.2764 31.2748 58.5484 29.8562C57.839 28.4375 57.4844 26.7388 57.4844 24.7602C57.4844 22.7815 57.8484 21.0828 58.5764 19.6642C59.3044 18.2455 60.331 17.1535 61.6564 16.3882C62.9817 15.6228 64.5404 15.2402 66.3324 15.2402C68.2177 15.2402 69.8324 15.6415 71.1764 16.4442C72.539 17.2282 73.4724 18.4228 73.9764 20.0282L70.4764 21.5122C70.159 20.3922 69.6737 19.5988 69.0204 19.1322C68.367 18.6468 67.527 18.4042 66.5004 18.4042C64.9697 18.4042 63.747 18.9548 62.8324 20.0562C61.9364 21.1388 61.4884 22.7068 61.4884 24.7602C61.4884 26.7948 61.9177 28.3628 62.7764 29.4642C63.635 30.5655 64.8764 31.1162 66.5004 31.1162C67.5084 31.1162 68.3764 30.8455 69.1044 30.3042C69.851 29.7628 70.3737 28.9415 70.6724 27.8402L74.2284 28.9042Z" fill="#D0D5DD"/>
<path d="M79.0617 17.9842C77.475 17.9842 76.6817 17.3028 76.6817 15.9402C76.6817 14.5588 77.475 13.8682 79.0617 13.8682C80.6483 13.8682 81.4417 14.5588 81.4417 15.9402C81.4417 17.3028 80.6483 17.9842 79.0617 17.9842ZM80.9657 20.0002V34.0002H77.1297V20.0002H80.9657Z" fill="#D0D5DD"/>
<path d="M85.032 34.0002V20.0002H88.364L88.616 22.7442C88.9707 21.7922 89.5027 21.0548 90.212 20.5322C90.94 19.9908 91.8547 19.7202 92.956 19.7202C93.6093 19.7202 94.1133 19.8228 94.468 20.0282L94.02 23.2482C93.8333 23.1922 93.6 23.1455 93.32 23.1082C93.0587 23.0522 92.7133 23.0242 92.284 23.0242C91.7053 23.0242 91.1547 23.1642 90.632 23.4442C90.128 23.7055 89.708 24.1162 89.372 24.6762C89.036 25.2175 88.868 25.9082 88.868 26.7482V34.0002H85.032Z" fill="#D0D5DD"/>
<path d="M102.927 19.7202C104.794 19.7202 106.24 20.1215 107.267 20.9242C108.312 21.7268 109.003 22.6975 109.339 23.8362L105.755 25.1242C105.382 23.4255 104.458 22.5762 102.983 22.5762C101.919 22.5762 101.088 22.9495 100.491 23.6962C99.9124 24.4428 99.6231 25.5535 99.6231 27.0282C99.6231 28.5215 99.9217 29.6322 100.519 30.3602C101.135 31.0695 101.966 31.4242 103.011 31.4242C104.635 31.4242 105.606 30.5935 105.923 28.9322L109.395 30.0522C109.078 31.3028 108.368 32.3202 107.267 33.1042C106.184 33.8882 104.775 34.2802 103.039 34.2802C101.583 34.2802 100.304 33.9908 99.203 33.4122C98.1204 32.8335 97.2804 32.0028 96.6831 30.9202C96.0857 29.8375 95.7871 28.5308 95.7871 27.0002C95.7871 25.4695 96.0857 24.1628 96.6831 23.0802C97.299 21.9975 98.139 21.1668 99.203 20.5882C100.286 20.0095 101.527 19.7202 102.927 19.7202Z" fill="#D0D5DD"/>
<path d="M118.76 19.7202C120.16 19.7202 121.401 20.0095 122.484 20.5882C123.566 21.1668 124.406 21.9975 125.004 23.0802C125.62 24.1628 125.928 25.4695 125.928 27.0002C125.928 28.5308 125.62 29.8375 125.004 30.9202C124.406 32.0028 123.566 32.8335 122.484 33.4122C121.401 33.9908 120.16 34.2802 118.76 34.2802C117.341 34.2802 116.09 33.9908 115.008 33.4122C113.944 32.8335 113.104 32.0028 112.488 30.9202C111.89 29.8375 111.592 28.5308 111.592 27.0002C111.592 25.4695 111.89 24.1628 112.488 23.0802C113.104 21.9975 113.944 21.1668 115.008 20.5882C116.09 20.0095 117.341 19.7202 118.76 19.7202ZM118.76 22.5762C117.714 22.5762 116.893 22.9495 116.296 23.6962C115.717 24.4242 115.428 25.5255 115.428 27.0002C115.428 28.4748 115.717 29.5855 116.296 30.3322C116.893 31.0602 117.714 31.4242 118.76 31.4242C119.786 31.4242 120.589 31.0602 121.168 30.3322C121.765 29.5855 122.064 28.4748 122.064 27.0002C122.064 25.5255 121.765 24.4242 121.168 23.6962C120.589 22.9495 119.786 22.5762 118.76 22.5762Z" fill="#D0D5DD"/>
<path d="M135.521 19.7202C136.921 19.7202 138.163 20.0095 139.245 20.5882C140.328 21.1668 141.168 21.9975 141.765 23.0802C142.381 24.1628 142.689 25.4695 142.689 27.0002C142.689 28.5308 142.381 29.8375 141.765 30.9202C141.168 32.0028 140.328 32.8335 139.245 33.4122C138.163 33.9908 136.921 34.2802 135.521 34.2802C134.103 34.2802 132.852 33.9908 131.769 33.4122C130.705 32.8335 129.865 32.0028 129.249 30.9202C128.652 29.8375 128.353 28.5308 128.353 27.0002C128.353 25.4695 128.652 24.1628 129.249 23.0802C129.865 21.9975 130.705 21.1668 131.769 20.5882C132.852 20.0095 134.103 19.7202 135.521 19.7202ZM135.521 22.5762C134.476 22.5762 133.655 22.9495 133.057 23.6962C132.479 24.4242 132.189 25.5255 132.189 27.0002C132.189 28.4748 132.479 29.5855 133.057 30.3322C133.655 31.0602 134.476 31.4242 135.521 31.4242C136.548 31.4242 137.351 31.0602 137.929 30.3322C138.527 29.5855 138.825 28.4748 138.825 27.0002C138.825 25.5255 138.527 24.4242 137.929 23.6962C137.351 22.9495 136.548 22.5762 135.521 22.5762Z" fill="#D0D5DD"/>
<path d="M149.679 13.8682V29.6882C149.679 30.3415 149.791 30.7988 150.015 31.0602C150.239 31.3215 150.612 31.4522 151.135 31.4522C151.452 31.4522 151.714 31.4335 151.919 31.3962C152.125 31.3588 152.386 31.2842 152.703 31.1722L152.367 33.6922C152.05 33.8788 151.648 34.0188 151.163 34.1122C150.696 34.2242 150.23 34.2802 149.763 34.2802C148.4 34.2802 147.402 33.9535 146.767 33.3002C146.151 32.6282 145.843 31.5642 145.843 30.1082V13.8682H149.679Z" fill="#D0D5DD"/>
<path d="M161.337 34.2802C159.134 34.2802 157.37 33.6455 156.045 32.3762C154.719 31.0882 154.057 29.2962 154.057 27.0002C154.057 25.4695 154.355 24.1628 154.953 23.0802C155.55 21.9975 156.381 21.1668 157.445 20.5882C158.527 20.0095 159.759 19.7202 161.141 19.7202C162.559 19.7202 163.763 20.0095 164.753 20.5882C165.742 21.1482 166.498 21.9228 167.021 22.9122C167.543 23.8828 167.805 24.9935 167.805 26.2442C167.805 26.6175 167.795 26.9722 167.777 27.3082C167.758 27.6442 167.73 27.9428 167.693 28.2042H157.809C157.958 29.2868 158.331 30.0988 158.929 30.6402C159.545 31.1628 160.338 31.4242 161.309 31.4242C162.13 31.4242 162.793 31.2655 163.297 30.9482C163.801 30.6308 164.193 30.1922 164.473 29.6322L167.525 30.8082C167.077 31.9095 166.293 32.7682 165.173 33.3842C164.053 33.9815 162.774 34.2802 161.337 34.2802ZM161.113 22.5482C159.302 22.5482 158.21 23.5468 157.837 25.5442H164.137C164.025 24.5735 163.707 23.8362 163.185 23.3322C162.681 22.8095 161.99 22.5482 161.113 22.5482Z" fill="#D0D5DD"/>
<path d="M176.655 34.2802C175.237 34.2802 173.939 34.0282 172.763 33.5242C171.606 33.0202 170.663 32.3108 169.935 31.3962L172.147 29.1562C172.595 29.8282 173.193 30.3788 173.939 30.8082C174.686 31.2375 175.573 31.4522 176.599 31.4522C177.327 31.4522 177.906 31.3495 178.335 31.1442C178.783 30.9202 179.007 30.5748 179.007 30.1082C179.007 29.8095 178.905 29.5575 178.699 29.3522C178.494 29.1282 178.083 28.9508 177.467 28.8202L175.003 28.3162C173.379 27.9802 172.222 27.4762 171.531 26.8042C170.859 26.1135 170.523 25.2268 170.523 24.1442C170.523 23.3788 170.747 22.6602 171.195 21.9882C171.662 21.3162 172.353 20.7748 173.267 20.3642C174.182 19.9348 175.321 19.7202 176.683 19.7202C179.521 19.7202 181.555 20.5882 182.787 22.3242L180.491 24.5642C180.081 23.9108 179.539 23.4162 178.867 23.0802C178.214 22.7255 177.523 22.5482 176.795 22.5482C175.153 22.5482 174.331 23.0055 174.331 23.9202C174.331 24.2188 174.462 24.4802 174.723 24.7042C174.985 24.9095 175.461 25.0868 176.151 25.2362L179.007 25.8242C180.389 26.1042 181.378 26.5802 181.975 27.2522C182.573 27.9055 182.871 28.6988 182.871 29.6322C182.871 30.9762 182.33 32.0868 181.247 32.9642C180.183 33.8415 178.653 34.2802 176.655 34.2802Z" fill="#D0D5DD"/>
</svg>
