<svg width="24" height="25" viewBox="0 0 24 25" fill="none" xmlns="http://www.w3.org/2000/svg">
<path d="M22.2064 9.33349L5.35494 0.442243C4.80461 0.148123 4.1808 -0.00443171 3.54697 9.8012e-05C2.91313 0.00462774 2.29189 0.16608 1.74643 0.468032C1.21502 0.752267 0.773519 1.16298 0.466782 1.65844C0.160045 2.15391 -0.00100111 2.71647 4.68239e-06 3.28899V21.0715C-0.00100111 21.644 0.160045 22.2066 0.466782 22.702C0.773519 23.1975 1.21502 23.6082 1.74643 23.8924C2.29194 24.1943 2.91316 24.3556 3.54697 24.3602C4.18077 24.3647 4.80456 24.2122 5.35494 23.9182L22.2064 15.027C22.7499 14.7454 23.2028 14.3329 23.5183 13.8323C23.8337 13.3317 24 12.7613 24 12.1802C24 11.5992 23.8337 11.0288 23.5183 10.5282C23.2028 10.0275 22.7499 9.61505 22.2064 9.33349Z" fill="#D5FF3F"/>
</svg>
