<svg width="16" height="16" viewBox="0 0 16 16" fill="none" xmlns="http://www.w3.org/2000/svg">
<path d="M6.67014 1.06738C3.57852 1.06738 1.07227 3.57447 1.07227 6.66713C1.07227 9.75978 3.57852 12.2669 6.67014 12.2669C9.76177 12.2669 12.268 9.75978 12.268 6.66713C12.2647 3.57587 9.76037 1.07075 6.67014 1.06738ZM6.67014 1.60069C7.48153 1.60133 8.28086 1.79717 9.0007 2.17169C9.72054 2.54621 10.3398 3.08843 10.8062 3.75259L10.1398 4.41923C9.97759 4.32106 9.79191 4.26854 9.60236 4.26724C9.01349 4.26724 8.5361 4.74478 8.5361 5.33385C8.53703 5.52366 8.58925 5.70969 8.68724 5.87223L6.94177 7.61828C6.77966 7.5194 6.59345 7.46709 6.40358 7.46709C6.2137 7.46709 6.02749 7.5194 5.86538 7.61828L4.65304 6.40554C4.75104 6.243 4.80326 6.05697 4.80418 5.86716C4.80492 5.27926 4.3291 4.80208 3.74139 4.80135C3.25534 4.80075 2.83067 5.12963 2.70951 5.60051H1.72055C2.22526 3.26905 4.28545 1.60419 6.67014 1.60069ZM10.1355 5.33385C10.1355 5.62841 9.89682 5.86716 9.60236 5.86716C9.30791 5.86716 9.06923 5.62841 9.06923 5.33385C9.06923 5.0393 9.30791 4.80055 9.60236 4.80055C9.89682 4.80055 10.1355 5.0393 10.1355 5.33385ZM6.93671 8.53371C6.93671 8.82826 6.69803 9.06702 6.40358 9.06702C6.10912 9.06702 5.87045 8.82826 5.87045 8.53371C5.87045 8.23915 6.10912 8.0004 6.40358 8.0004C6.69803 8.0004 6.93671 8.23915 6.93671 8.53371ZM4.27105 5.86716C4.27105 6.16172 4.03238 6.40047 3.73792 6.40047C3.44347 6.40047 3.20479 6.16172 3.20479 5.86716C3.20479 5.57261 3.44347 5.33385 3.73792 5.33385C4.03238 5.33385 4.27105 5.57261 4.27105 5.86716ZM9.13101 11.0971C8.37821 11.5152 7.5312 11.7343 6.67014 11.7335C3.87487 11.7354 1.6073 9.47023 1.6054 6.67403C1.60526 6.49357 1.61479 6.31321 1.63392 6.13378H2.70951C2.8307 6.60326 3.25321 6.93191 3.73792 6.93375C3.92767 6.93282 4.11363 6.88058 4.27612 6.78255L5.48846 7.9953C5.39046 8.15784 5.33824 8.34387 5.33732 8.53367C5.33732 9.12275 5.8147 9.60029 6.40358 9.60029C6.99245 9.60029 7.46984 9.12275 7.46984 8.53367C7.46892 8.34387 7.41669 8.15784 7.3187 7.9953L9.06417 6.24925C9.22665 6.34727 9.41262 6.39951 9.60236 6.40044C10.1912 6.40044 10.6686 5.92289 10.6686 5.33382C10.6677 5.14401 10.6155 4.95799 10.5175 4.79545L11.0986 4.21441C12.4552 6.65856 11.5743 9.74005 9.13101 11.0971Z" fill="url(#paint0_linear_4044_416)"/>
<path d="M13.3343 2.6674C13.819 2.66557 14.2416 2.33695 14.3627 1.86744H16V1.33413H14.3627C14.2416 0.864617 13.819 0.535999 13.3343 0.534165C12.7455 0.534165 12.2681 1.01171 12.2681 1.60078C12.269 1.79059 12.3212 1.97662 12.4192 2.13916L11.9509 2.60767C9.70987 -0.312896 5.52639 -0.863204 2.6068 1.37853C-0.312792 3.62026 -0.862916 7.80517 1.37807 10.7257C3.4934 13.4825 7.37096 14.1512 10.287 12.2622L11.0915 13.0669L11.4684 13.444L13.6142 15.5905C14.16 16.1365 15.0448 16.1365 15.5905 15.5905C16.1363 15.0446 16.1363 14.1595 15.5905 13.6136L13.4447 11.467L13.0678 11.09L12.2633 10.2852C13.6914 8.08475 13.6914 5.24972 12.2633 3.04925L12.7964 2.51594C12.9588 2.614 13.1447 2.66634 13.3343 2.6674ZM13.3343 1.06747C13.6288 1.06747 13.8675 1.30623 13.8675 1.60078C13.8675 1.89534 13.6288 2.13409 13.3343 2.13409C13.0399 2.13409 12.8012 1.89534 12.8012 1.60078C12.8012 1.30623 13.0399 1.06747 13.3343 1.06747ZM15.2136 13.9906C15.555 14.3245 15.5613 14.872 15.2275 15.2135C14.8938 15.555 14.3464 15.5612 14.005 15.2274C14.0004 15.2228 13.9957 15.2182 13.9912 15.2135L11.8453 13.0669L13.0678 11.844L15.2136 13.9906ZM12.6908 11.467L11.4684 12.6899L10.7305 11.9518C10.7681 11.923 10.8033 11.8912 10.8403 11.8616C10.8774 11.8321 10.9203 11.7966 10.96 11.7633C11.0184 11.7142 11.076 11.6646 11.1325 11.6137C11.1616 11.587 11.1893 11.5603 11.2178 11.5337C11.3271 11.4313 11.433 11.3254 11.5353 11.2161C11.5619 11.1875 11.5886 11.1598 11.6153 11.1307C11.6661 11.0741 11.7159 11.0166 11.7648 10.9582C11.7982 10.9188 11.831 10.8789 11.8632 10.8385C11.8925 10.8017 11.9242 10.7665 11.953 10.7289L12.6908 11.467ZM11.6571 10.2284C11.5731 10.3457 11.4865 10.4606 11.3951 10.5713C11.3684 10.6036 11.3399 10.6348 11.3124 10.6665C11.2311 10.7612 11.1468 10.8533 11.0597 10.9428C11.0219 10.9819 10.9834 11.0204 10.9443 11.0582C10.8551 11.1455 10.763 11.2298 10.6681 11.311C10.6364 11.3377 10.6052 11.3667 10.573 11.3937C10.4624 11.4851 10.3475 11.5718 10.2302 11.6558C7.47069 13.6279 3.63551 12.9888 1.66409 10.2284C-0.307327 7.46798 0.331531 3.63152 3.09102 1.65945C5.8505 -0.312629 9.68568 0.326408 11.6571 3.08685C13.1826 5.22282 13.1826 8.09242 11.6571 10.2284Z" fill="url(#paint1_linear_4044_416)"/>
<defs>
<linearGradient id="paint0_linear_4044_416" x1="1.79709" y1="-1.21399" x2="12.8966" y2="-0.543734" gradientUnits="userSpaceOnUse">
<stop stop-color="#C4C4C4"/>
<stop offset="1" stop-color="white"/>
</linearGradient>
<linearGradient id="paint1_linear_4044_416" x1="1.03586" y1="-3.25926" x2="16.8983" y2="-2.30107" gradientUnits="userSpaceOnUse">
<stop stop-color="#C4C4C4"/>
<stop offset="1" stop-color="white"/>
</linearGradient>
</defs>
</svg>
