<svg width="17" height="16" viewBox="0 0 17 16" fill="none" xmlns="http://www.w3.org/2000/svg">
<path d="M4.52324 10.1794C4.68113 10.0884 4.73519 9.8862 4.64411 9.72831C4.5529 9.57055 4.35089 9.51636 4.193 9.60744C4.03511 9.69865 3.98091 9.9008 4.07213 10.0586C4.16318 10.2164 4.36535 10.2706 4.52324 10.1794Z" fill="url(#paint0_linear_4044_408)"/>
<path d="M3.16983 12.4586L4.83294 15.3394C5.19182 15.9617 5.9991 16.192 6.63753 15.823C7.26929 15.4579 7.48636 14.6508 7.12091 14.0185L6.13017 12.3023L6.98815 11.8069C7.14607 11.7156 7.20023 11.5137 7.10902 11.3558L6.6796 10.612C6.73079 10.6021 7.06751 10.536 13.0051 9.37124C13.7391 9.33138 14.1789 8.52859 13.8081 7.88679L12.7106 5.98584L13.4119 4.9235C13.4457 4.87232 13.4646 4.81273 13.4665 4.75141C13.4683 4.6901 13.4531 4.62948 13.4224 4.57635L12.7619 3.43238C12.7312 3.37932 12.6863 3.33584 12.6323 3.3068C12.5783 3.27776 12.5173 3.2643 12.456 3.26792L11.1855 3.34414L9.96709 1.23365C9.79061 0.927941 9.47443 0.742806 9.12146 0.738413C9.1172 0.738281 9.11308 0.738281 9.10882 0.738281C8.76774 0.738281 8.45813 0.90806 8.27472 1.19508L3.96063 6.69084L1.156 8.31003C0.0529132 8.94668 -0.329246 10.3619 0.309877 11.4679C0.893749 12.4793 2.12467 12.8771 3.16983 12.4587V12.4586ZM6.54906 14.3489C6.73145 14.6644 6.62349 15.0682 6.30702 15.251C5.98956 15.4346 5.58527 15.3218 5.40492 15.0093L3.7537 12.1489L4.89767 11.4884C6.80873 14.7988 6.51834 14.2959 6.54906 14.3489ZM5.79993 11.7301L5.46969 11.1582L6.04167 10.8279L6.37191 11.3999L5.79993 11.7301ZM12.2919 3.93934L12.7483 4.72988L12.3413 5.34625L11.5547 3.9836L12.2919 3.93934ZM8.82708 1.55719C8.91572 1.41221 9.05631 1.39725 9.11334 1.39877C9.16971 1.39943 9.3102 1.41697 9.39494 1.56379L13.2361 8.21703C13.3612 8.43364 13.2091 8.70596 12.9582 8.71217C12.9132 8.71316 12.8925 8.72132 12.7771 8.74288L8.71394 1.70514C8.79921 1.5955 8.81018 1.58493 8.82708 1.55719ZM8.27445 2.26504L12.092 8.87729L6.33053 10.0073L4.57868 6.97307L8.27445 2.26504ZM0.88186 11.1377C0.736988 10.8872 0.660565 10.603 0.660266 10.3137C0.660266 9.7247 0.976805 9.17616 1.48621 8.88208L4.0602 7.39598L5.71142 10.2559L3.13746 11.7422C2.34887 12.1972 1.3371 11.9261 0.881893 11.1377H0.88186Z" fill="url(#paint1_linear_4044_408)"/>
<path d="M3.50015 10.3886C3.40897 10.2307 3.20693 10.1765 3.04904 10.2678L2.47705 10.598C2.3194 10.6891 2.11702 10.6348 2.02594 10.4771C1.93473 10.3192 1.73268 10.265 1.57483 10.3563C1.41697 10.4475 1.36274 10.6495 1.45396 10.8074C1.72575 11.2782 2.33208 11.4443 2.8073 11.17L3.37928 10.8397C3.53717 10.7486 3.59137 10.5466 3.50015 10.3886ZM16.4178 1.44467L14.5775 2.4687C14.4182 2.55743 14.3608 2.75855 14.4496 2.91786C14.5381 3.07704 14.7391 3.13473 14.8988 3.04583L16.7388 2.02184C16.8983 1.93307 16.9556 1.73195 16.8668 1.57264C16.7782 1.4132 16.5771 1.35594 16.4178 1.44467ZM16.2248 4.86502L14.9488 4.52318C14.7726 4.47596 14.5915 4.58045 14.5443 4.75667C14.497 4.93288 14.6017 5.11389 14.7779 5.16108L16.054 5.50295C16.2312 5.55054 16.4114 5.44437 16.4584 5.26947C16.5056 5.09325 16.401 4.91214 16.2248 4.86502ZM13.0183 0.24483L12.6761 1.5209C12.6288 1.69715 12.7333 1.87812 12.9095 1.92544C13.0856 1.97254 13.2668 1.86831 13.3141 1.69196L13.6562 0.415896C13.7035 0.239678 13.5989 0.0585718 13.4228 0.0113468C13.2466 -0.0358782 13.0655 0.0686112 13.0183 0.24483H13.0183Z" fill="url(#paint2_linear_4044_408)"/>
<defs>
<linearGradient id="paint0_linear_4044_408" x1="4.07059" y1="9.42869" x2="4.72543" y2="9.46825" gradientUnits="userSpaceOnUse">
<stop stop-color="#C4C4C4"/>
<stop offset="1" stop-color="white"/>
</linearGradient>
<linearGradient id="paint1_linear_4044_408" x1="0.902637" y1="-2.37059" x2="14.7334" y2="-1.60735" gradientUnits="userSpaceOnUse">
<stop stop-color="#C4C4C4"/>
<stop offset="1" stop-color="white"/>
</linearGradient>
<linearGradient id="paint2_linear_4044_408" x1="2.41308" y1="-2.30237" x2="17.7298" y2="-1.03363" gradientUnits="userSpaceOnUse">
<stop stop-color="#C4C4C4"/>
<stop offset="1" stop-color="white"/>
</linearGradient>
</defs>
</svg>
